{
    "asset" : {
        "generator" : "Khronos glTF Blender I/O v1.7.33",
        "version" : "2.0"
    },
    "scene" : 0,
    "scenes" : [
        {
            "name" : "Scene",
            "nodes" : [
                0
            ]
        }
    ],
    "nodes" : [
        {
            "mesh" : 0,
            "name" : "mackerel_text",
            "rotation" : [
                0.7071067690849304,
                0,
                0,
                0.7071068286895752
            ],
            "translation" : [
                -2,
                0,
                0
            ]
        }
    ],
    "meshes" : [
        {
            "name" : "Mackerel",
            "primitives" : [
                {
                    "attributes" : {
                        "POSITION" : 0,
                        "NORMAL" : 1,
                        "TEXCOORD_0" : 2
                    },
                    "indices" : 3
                }
            ]
        }
    ],
    "accessors" : [
        {
            "bufferView" : 0,
            "componentType" : 5126,
            "count" : 5032,
            "max" : [
                3.633000612258911,
                0,
                0.009000000543892384
            ],
            "min" : [
                0.07300000637769699,
                -0.09999998658895493,
                -0.6820000410079956
            ],
            "type" : "VEC3"
        },
        {
            "bufferView" : 1,
            "componentType" : 5126,
            "count" : 5032,
            "type" : "VEC3"
        },
        {
            "bufferView" : 2,
            "componentType" : 5126,
            "count" : 5032,
            "type" : "VEC2"
        },
        {
            "bufferView" : 3,
            "componentType" : 5123,
            "count" : 6576,
            "type" : "SCALAR"
        }
    ],
    "bufferViews" : [
        {
            "buffer" : 0,
            "byteLength" : 60384,
            "byteOffset" : 0
        },
        {
            "buffer" : 0,
            "byteLength" : 60384,
            "byteOffset" : 60384
        },
        {
            "buffer" : 0,
            "byteLength" : 40256,
            "byteOffset" : 120768
        },
        {
            "buffer" : 0,
            "byteLength" : 13152,
            "byteOffset" : 161024
        }
    ],
    "buffers" : [
        {
            "byteLength" : 174176,
            "uri" : "data:application/octet-stream;base64,"
        }
    ]
}
