# Blender v3.5.1 OBJ File: 'untitled.blend'
# www.blender.org
mtllib PhysicsDemoGeo.mtl
o PhysicsDemoGeo
v -50.135349 0.879287 4.434701
v -50.135349 0.879287 -3.243895
v -50.135349 2.159053 4.434701
v -50.135349 2.159053 -3.243895
v -34.778160 0.879287 -3.243893
v -34.778160 2.159053 -3.243893
v -33.498394 0.879287 -3.243891
v -33.498394 0.879287 4.434706
v -33.498394 2.159053 -3.243891
v -33.498394 2.159053 4.434706
v -34.778164 0.879287 4.434706
v -34.778164 2.159053 4.434706
v -34.778160 -0.400479 -3.243893
v -34.778164 -0.400479 4.434706
v -33.498394 -0.400482 -3.243891
v -33.498394 -0.400482 4.434706
v -34.778164 2.159053 -4.523659
v -34.778164 0.879287 -4.523659
v -33.498394 2.159053 -4.523659
v -33.498394 0.879287 -4.523659
v -34.778164 0.879287 5.714470
v -34.778164 2.159053 5.714470
v -33.498394 0.879287 5.714470
v -33.498394 2.159053 5.714470
v -33.498394 -0.400482 -4.523659
v -34.778164 -0.400479 -4.523659
v -34.778164 -0.400479 5.714470
v -33.498394 -0.400482 5.714470
v -20.700731 0.879284 4.434706
v -20.700731 0.879284 -3.243891
v -20.700731 -0.400482 4.434706
v -20.700731 -0.400482 -3.243891
v -21.980499 2.159050 4.434706
v -21.980499 0.879284 4.434706
v -21.980499 2.159050 5.714472
v -21.980499 0.879284 5.714472
v -20.700731 0.879284 5.714472
v -20.700731 -0.400482 5.714472
v -20.700731 -0.400482 -4.523657
v -20.700731 0.879284 -4.523657
v -21.980499 0.879284 -3.243891
v -21.980499 2.159050 -3.243891
v -21.980499 0.879284 -4.523657
v -21.980499 2.159050 -4.523657
v -21.980499 -0.400482 -3.243891
v -21.980499 -0.400482 4.434706
v -21.980499 -0.400482 -4.523657
v -21.980499 -0.400482 5.714472
v -20.700731 2.159050 4.434706
v -20.700731 2.159050 -3.243891
v -9.182838 0.879284 -3.243890
v -9.182838 0.879284 4.434706
v -9.182838 2.159050 -3.243890
v -9.182838 2.159050 4.434706
v -10.462605 0.879284 -3.243891
v -10.462605 0.879284 4.434706
v -10.462605 2.159050 -3.243891
v -10.462605 2.159050 4.434706
v -10.462605 -0.400482 -3.243891
v -10.462605 -0.400482 4.434706
v -9.182838 -0.400482 -3.243890
v -9.182838 -0.400482 4.434706
v -10.462605 2.159050 -4.523657
v -10.462605 0.879284 -4.523657
v -9.182837 2.159050 -4.523656
v -9.182837 0.879284 -4.523656
v -10.462605 0.879284 5.714472
v -10.462605 2.159050 5.714472
v -9.182838 0.879284 5.714472
v -9.182838 2.159050 5.714472
v -9.182838 -0.400482 5.714472
v -10.462605 -0.400482 5.714472
v 2.335057 2.159049 4.434707
v 2.335057 0.879283 4.434707
v 2.335057 2.159049 5.714473
v 2.335057 0.879283 5.714473
v -10.462605 -0.400482 -4.523657
v -9.182837 -0.400482 -4.523656
v 2.335057 0.879283 -3.243890
v 2.335058 2.159049 -3.243889
v 2.335057 0.879283 -4.523655
v 2.335058 2.159049 -4.523655
v 3.614823 0.879283 4.434707
v 3.614824 0.879283 -3.243890
v 3.614823 -0.400483 4.434707
v 3.614824 -0.400483 -3.243890
v 3.614824 0.879283 5.714473
v 3.614824 -0.400483 5.714473
v 3.614824 0.879283 -4.523655
v 3.614824 -0.400483 -4.523655
v 2.335056 -0.400483 5.714473
v 2.335057 -0.400483 -4.523656
v 2.335057 -0.400483 4.434707
v 2.335057 -0.400483 -3.243890
v 3.614824 2.159049 4.434707
v 3.614824 2.159049 -3.243889
v 13.852954 0.879282 -3.243889
v 13.852953 0.879282 4.434708
v 13.852954 2.159048 -3.243889
v 13.852953 2.159048 4.434708
v 12.573188 0.879282 -3.243889
v 12.573188 0.879282 4.434708
v 12.573188 2.159048 -3.243889
v 12.573188 2.159048 4.434708
v 12.573188 -0.400484 -3.243889
v 12.573188 -0.400484 4.434708
v 13.852954 -0.400484 -3.243889
v 13.852953 -0.400484 4.434708
v 12.573188 2.159048 -4.523655
v 12.573188 0.879282 -4.523655
v 13.852954 2.159048 -4.523655
v 13.852954 0.879282 -4.523655
v 12.573187 0.879282 5.714474
v 12.573187 2.159048 5.714474
v 13.852955 0.879282 5.714474
v 13.852955 2.159048 5.714474
v 13.852955 -0.400484 5.714474
v 12.573187 -0.400484 5.714474
v 39.448273 -3.599902 4.434710
v 39.448273 -4.879668 4.434710
v 39.448277 -3.599902 5.714476
v 39.448277 -4.879668 5.714476
v 12.573188 -0.400484 -4.523655
v 13.852954 -0.400484 -4.523655
v 39.448273 -4.879668 -3.243887
v 39.448273 -3.599902 -3.243887
v 39.448273 -4.879668 -4.523655
v 39.448273 -3.599902 -4.523655
v 40.728039 -4.879668 4.434710
v 40.728039 -4.879668 -3.243887
v 40.728039 -6.159434 4.434710
v 40.728039 -6.159434 -3.243887
v 39.448277 -6.159434 5.714476
v 39.448273 -6.159434 4.434710
v 39.448273 -6.159434 -3.243887
v 39.448273 -6.159434 -4.523655
v 21.531549 2.159048 4.434708
v 21.531549 0.879282 4.434708
v 21.531549 2.159048 5.714474
v 21.531549 -0.400484 5.714474
v 21.531549 0.879282 5.714474
v 21.531549 0.879282 -4.523653
v 21.531549 -0.400484 -4.523653
v 21.531549 -0.400484 4.434708
v 21.531549 0.879282 -3.243889
v 21.531549 -0.400484 -3.243889
v 21.531549 2.159048 -3.243889
v 21.531549 2.159048 -4.523653
v 33.049446 -3.599902 4.434710
v 33.049446 -4.879668 4.434710
v 33.049446 -3.599902 5.714474
v 33.049446 -6.159432 5.714474
v 33.049446 -4.879668 5.714474
v 33.049446 -4.879668 -4.523655
v 33.049446 -6.159432 -4.523655
v 33.049446 -6.159432 4.434710
v 33.049446 -4.879668 -3.243887
v 33.049446 -6.159432 -3.243887
v 33.049446 -3.599902 -3.243887
v 33.049446 -3.599902 -4.523655
v 40.728039 -3.599902 4.434710
v 40.728039 -3.599902 -3.243887
v 49.686409 -4.879671 -3.243887
v 49.686409 -4.879671 4.434710
v 49.686409 -3.599905 -3.243887
v 49.686409 -3.599905 4.434710
vt 0.371290 0.668287
vt 0.385480 0.583152
vt 0.385480 0.668287
vt 0.371290 0.583152
vt 0.632158 0.156081
vt 0.620806 0.326352
vt 0.620806 0.156081
vt 0.632158 0.326352
vt 0.472529 0.681082
vt 0.486718 0.595947
vt 0.486718 0.681082
vt 0.472529 0.595947
vt 0.101767 0.173341
vt 0.124631 0.004231
vt 0.113092 0.174110
vt 0.113306 0.003462
vt 0.062342 0.000000
vt 0.050803 0.169879
vt 0.569725 0.156081
vt 0.569725 0.326352
vt 0.345750 0.568962
vt 0.396831 0.583152
vt 0.345750 0.583152
vt 0.396831 0.568962
vt 0.314534 0.568962
vt 0.325885 0.583152
vt 0.314534 0.583152
vt 0.325885 0.568962
vt 0.120625 0.188843
vt 0.110261 0.173918
vt 0.121586 0.174687
vt 0.109300 0.188074
vt 0.100806 0.187497
vt 0.049842 0.184036
vt 0.691442 0.567568
vt 0.677253 0.652704
vt 0.677253 0.567568
vt 0.691442 0.652704
vt 0.337236 0.568963
vt 0.337236 0.583152
vt 0.132912 0.175456
vt 0.131950 0.189613
vt 0.685367 0.170271
vt 0.671178 0.255406
vt 0.671178 0.170271
vt 0.685367 0.255406
vt 0.677253 0.666893
vt 0.663064 0.652704
vt 0.663064 0.666893
vt 0.691442 0.666893
vt 0.529286 0.624325
vt 0.543475 0.610136
vt 0.543475 0.624325
vt 0.529286 0.610136
vt 0.671178 0.156081
vt 0.685367 0.156081
vt 0.405345 0.568962
vt 0.405345 0.583152
vt 0.663064 0.553379
vt 0.663064 0.567568
vt 0.677253 0.553379
vt 0.041348 0.183459
vt 0.042309 0.169302
vt 0.685367 0.269595
vt 0.671178 0.269595
vt 0.419534 0.621333
vt 0.405345 0.607144
vt 0.419534 0.607144
vt 0.405345 0.621333
vt 0.691442 0.553379
vt 0.345750 0.441260
vt 0.396831 0.441260
vt 0.337236 0.441260
vt 0.041188 0.311445
vt 0.032694 0.310868
vt 0.325885 0.441260
vt 0.103477 0.315676
vt 0.061167 0.184805
vt 0.112131 0.188267
vt 0.052513 0.312214
vt 0.111971 0.316253
vt 0.100645 0.315484
vt 0.405345 0.441260
vt 0.123296 0.317022
vt 0.696719 0.283784
vt 0.685367 0.156081
vt 0.696719 0.156081
vt 0.685367 0.283784
vt 0.092151 0.314907
vt 0.314534 0.441260
vt 0.091190 0.329063
vt 0.040226 0.325601
vt 0.111009 0.330409
vt 0.102515 0.329832
vt 0.337236 0.427070
vt 0.345750 0.427070
vt 0.396831 0.427070
vt 0.566178 0.610136
vt 0.557664 0.595947
vt 0.566178 0.595947
vt 0.557664 0.610136
vt 0.325885 0.427070
vt 0.405345 0.427070
vt 0.122334 0.331179
vt 0.444151 0.681082
vt 0.458340 0.595947
vt 0.458340 0.681082
vt 0.444151 0.595947
vt 0.663064 0.439866
vt 0.651713 0.454055
vt 0.651713 0.439866
vt 0.663064 0.454055
vt 0.429961 0.681082
vt 0.444151 0.595947
vt 0.444151 0.681082
vt 0.429961 0.595947
vt 0.651713 0.567569
vt 0.600631 0.454055
vt 0.600631 0.567569
vt 0.663064 0.567569
vt 0.094822 0.443085
vt 0.083497 0.442316
vt 0.032533 0.438854
vt 0.600941 0.141892
vt 0.652023 0.156081
vt 0.600941 0.156081
vt 0.652023 0.141892
vt 0.569725 0.141892
vt 0.581077 0.156081
vt 0.569725 0.156081
vt 0.581077 0.141892
vt 0.102355 0.457819
vt 0.091991 0.442893
vt 0.103316 0.443662
vt 0.091030 0.457049
vt 0.082536 0.456472
vt 0.031572 0.453011
vt 0.328723 0.696665
vt 0.314534 0.682476
vt 0.328723 0.682476
vt 0.314534 0.696665
vt 0.660536 0.141892
vt 0.660536 0.156081
vt 0.529286 0.610136
vt 0.543475 0.595947
vt 0.543475 0.610136
vt 0.529286 0.595947
vt 0.314534 0.583152
vt 0.328723 0.597341
vt 0.314534 0.597341
vt 0.328723 0.583152
vt 0.023078 0.452434
vt 0.024039 0.438277
vt 0.592428 0.156081
vt 0.592428 0.141892
vt 0.543475 0.610136
vt 0.557664 0.595947
vt 0.557664 0.610136
vt 0.543475 0.595947
vt 0.688605 0.340541
vt 0.674415 0.425676
vt 0.674415 0.340541
vt 0.688605 0.425676
vt 0.688605 0.326352
vt 0.674415 0.326352
vt 0.342912 0.682476
vt 0.342912 0.696665
vt 0.114642 0.444431
vt 0.113680 0.458588
vt 0.342912 0.597341
vt 0.342912 0.583152
vt 0.674415 0.439866
vt 0.688605 0.439866
vt 0.699956 0.439866
vt 0.688605 0.312163
vt 0.699956 0.312163
vt 0.688605 0.439866
vt 0.082375 0.584459
vt 0.073881 0.583882
vt 0.105026 0.585997
vt 0.093701 0.585228
vt 0.581077 0.014189
vt 0.592428 0.014189
vt 0.652023 0.014189
vt 0.660536 0.014189
vt 0.085207 0.584651
vt 0.042897 0.453780
vt 0.093861 0.457242
vt 0.034243 0.581189
vt 0.600941 0.014189
vt 0.022918 0.580420
vt 0.014424 0.579843
vt 0.569725 0.014189
vt 0.092739 0.599385
vt 0.084245 0.598808
vt 0.104064 0.600154
vt 0.581077 0.000000
vt 0.592428 0.000000
vt 0.652023 0.000000
vt 0.660536 0.000000
vt 0.072920 0.598038
vt 0.021956 0.594577
vt 0.600941 0.000000
vt 0.428047 0.621333
vt 0.419534 0.607144
vt 0.428047 0.607144
vt 0.419534 0.621333
vt 0.357101 0.668287
vt 0.371290 0.583152
vt 0.371290 0.668287
vt 0.357101 0.583152
vt 0.663064 0.567569
vt 0.651713 0.581758
vt 0.651713 0.567569
vt 0.663064 0.581758
vt 0.458340 0.681082
vt 0.472529 0.595947
vt 0.472529 0.681082
vt 0.458340 0.595947
vt 0.651713 0.681082
vt 0.600631 0.581758
vt 0.600631 0.681082
vt 0.663064 0.681082
vt 0.077514 0.697904
vt 0.066189 0.697134
vt 0.015225 0.693673
vt 0.383334 0.019791
vt 0.330498 0.015433
vt 0.380673 0.005854
vt 0.333159 0.029370
vt 0.413997 0.013937
vt 0.400186 0.002129
vt 0.411336 0.000000
vt 0.402847 0.016066
vt 0.085046 0.712637
vt 0.074683 0.697711
vt 0.086008 0.698481
vt 0.073721 0.711868
vt 0.065227 0.711291
vt 0.014263 0.707829
vt 0.677253 0.553379
vt 0.663064 0.539190
vt 0.677253 0.539190
vt 0.663064 0.553379
vt 0.324797 0.030967
vt 0.322136 0.017029
vt 0.515097 0.624325
vt 0.529286 0.610136
vt 0.529286 0.624325
vt 0.515097 0.610136
vt 0.663064 0.439866
vt 0.677253 0.454055
vt 0.663064 0.454055
vt 0.677253 0.439866
vt 0.005769 0.707252
vt 0.006731 0.693096
vt 0.389036 0.004257
vt 0.391697 0.018195
vt 0.515097 0.610136
vt 0.500908 0.624325
vt 0.500908 0.610136
vt 0.515097 0.624325
vt 0.399669 0.583152
vt 0.385480 0.668287
vt 0.385480 0.583152
vt 0.399669 0.668287
vt 0.515097 0.595947
vt 0.529286 0.595947
vt 0.691442 0.539190
vt 0.691442 0.553379
vt 0.097333 0.699250
vt 0.096372 0.713407
vt 0.691442 0.454055
vt 0.691442 0.439866
vt 0.500908 0.595947
vt 0.515097 0.595947
vt 0.569725 0.534086
vt 0.600631 0.614221
vt 0.589593 0.616870
vt 0.580763 0.531436
vt 0.067952 0.796808
vt 0.059458 0.796231
vt 0.090602 0.798346
vt 0.079277 0.797577
vt 0.418811 0.099691
vt 0.407661 0.101820
vt 0.349124 0.112995
vt 0.340761 0.114592
vt 0.070783 0.797000
vt 0.025589 0.708599
vt 0.076552 0.712060
vt 0.019819 0.793538
vt 0.399299 0.103416
vt 0.008494 0.792769
vt 0.000000 0.792192
vt 0.429961 0.097562
vt 0.589593 0.397988
vt 0.600631 0.395339
vt 0.110261 0.927679
vt 0.101767 0.927102
vt 0.132912 0.929217
vt 0.121586 0.928448
vt 0.392584 0.234707
vt 0.381434 0.236836
vt 0.322896 0.248011
vt 0.314534 0.249608
vt 0.113092 0.927871
vt 0.062129 0.924409
vt 0.373071 0.238433
vt 0.050803 0.923640
vt 0.042310 0.923063
vt 0.403734 0.232579
vt 0.573037 0.329001
vt 0.584075 0.326352
vt 0.105453 0.998461
vt 0.096959 0.997884
vt 0.128104 1.000000
vt 0.116779 0.999231
vt 0.405888 0.304395
vt 0.394738 0.306523
vt 0.336200 0.317699
vt 0.327838 0.319295
vt 0.108285 0.998654
vt 0.057321 0.995192
vt 0.386375 0.308120
vt 0.045996 0.994423
vt 0.037502 0.993846
vt 0.417038 0.302266
vt 0.623334 0.425676
vt 0.674415 0.439866
vt 0.623334 0.439866
vt 0.674415 0.425676
vt 0.600631 0.425676
vt 0.611983 0.439866
vt 0.600631 0.439866
vt 0.611983 0.425676
vt 0.400186 0.319929
vt 0.397525 0.305991
vt 0.389036 0.322057
vt 0.338861 0.331636
vt 0.342912 0.668287
vt 0.357101 0.583152
vt 0.357101 0.668287
vt 0.342912 0.583152
vt 0.408675 0.303863
vt 0.411336 0.317800
vt 0.486718 0.681082
vt 0.500908 0.595947
vt 0.500908 0.681082
vt 0.486718 0.595947
vt 0.418811 0.417491
vt 0.350011 0.329508
vt 0.368636 0.427070
vt 0.429961 0.415363
vt 0.611983 0.326352
vt 0.623334 0.326352
vt 0.674415 0.326352
vn -1.0000 0.0000 0.0000
vn 0.0000 0.0000 -1.0000
vn 1.0000 0.0000 0.0000
vn -0.0000 0.0000 1.0000
vn 0.0000 1.0000 0.0000
vn 0.0000 -1.0000 -0.0000
vn 0.4472 0.8944 0.0000
vn -0.4472 -0.8944 0.0000
usemtl mat
s off
f 3/1/1 2/2/1 1/3/1
f 3/1/1 4/4/1 2/2/1
f 4/5/2 5/6/2 2/7/2
f 4/5/2 6/8/2 5/6/2
f 9/9/3 8/10/3 7/11/3
f 9/9/3 10/12/3 8/10/3
f 12/13/4 1/14/4 11/15/4
f 12/13/4 3/16/4 1/14/4
f 12/13/5 4/17/5 3/16/5
f 12/13/5 6/18/5 4/17/5
f 1/19/6 5/6/6 11/20/6
f 1/19/6 2/7/6 5/6/6
f 15/21/6 14/22/6 13/23/6
f 15/21/6 16/24/6 14/22/6
f 19/25/2 18/26/2 17/27/2
f 19/25/2 20/28/2 18/26/2
f 23/29/4 22/30/4 21/31/4
f 23/29/4 24/32/4 22/30/4
f 10/33/5 6/18/5 12/13/5
f 10/33/5 9/34/5 6/18/5
f 13/35/1 11/36/1 5/37/1
f 13/35/1 14/38/1 11/36/1
f 25/39/2 18/26/2 20/28/2
f 25/39/2 26/40/2 18/26/2
f 27/41/4 23/29/4 21/31/4
f 27/41/4 28/42/4 23/29/4
f 31/43/3 30/44/3 29/45/3
f 31/43/3 32/46/3 30/44/3
f 21/47/1 12/48/1 11/36/1
f 21/47/1 22/49/1 12/48/1
f 27/50/1 11/36/1 14/38/1
f 27/50/1 21/47/1 11/36/1
f 22/30/5 10/33/5 12/13/5
f 22/30/5 24/32/5 10/33/5
f 35/51/3 34/52/3 33/53/3
f 35/51/3 36/54/3 34/52/3
f 37/55/3 31/43/3 29/45/3
f 37/55/3 38/56/3 31/43/3
f 28/57/6 14/22/6 16/24/6
f 28/57/6 27/58/6 14/22/6
f 17/59/1 5/37/1 6/60/1
f 17/59/1 18/61/1 5/37/1
f 19/62/5 6/18/5 9/34/5
f 19/62/5 17/63/5 6/18/5
f 39/64/3 30/44/3 32/46/3
f 39/64/3 40/65/3 30/44/3
f 43/66/3 42/67/3 41/68/3
f 43/66/3 44/69/3 42/67/3
f 18/61/1 13/35/1 5/37/1
f 18/61/1 26/70/1 13/35/1
f 26/40/6 15/21/6 13/23/6
f 26/40/6 25/39/6 15/21/6
f 45/71/6 16/24/6 15/21/6
f 45/71/6 46/72/6 16/24/6
f 47/73/6 15/21/6 25/39/6
f 47/73/6 45/71/6 15/21/6
f 42/74/5 19/62/5 9/34/5
f 42/74/5 44/75/5 19/62/5
f 43/76/2 25/39/2 20/28/2
f 43/76/2 47/73/2 25/39/2
f 34/77/5 7/78/5 8/79/5
f 34/77/5 41/80/5 7/78/5
f 36/81/4 24/32/4 23/29/4
f 36/81/4 35/82/4 24/32/4
f 46/72/6 28/57/6 16/24/6
f 46/72/6 48/83/6 28/57/6
f 48/84/4 23/29/4 28/42/4
f 48/84/4 36/81/4 23/29/4
f 33/85/2 8/86/2 10/87/2
f 33/85/2 34/88/2 8/86/2
f 35/82/5 10/33/5 24/32/5
f 35/82/5 33/89/5 10/33/5
f 41/80/4 9/34/4 7/78/4
f 41/80/4 42/74/4 9/34/4
f 44/90/2 20/28/2 19/25/2
f 44/90/2 43/76/2 20/28/2
f 49/91/5 42/74/5 33/89/5
f 49/91/5 50/92/5 42/74/5
f 37/93/5 34/77/5 36/81/5
f 37/93/5 29/94/5 34/77/5
f 39/95/6 45/71/6 47/73/6
f 39/95/6 32/96/6 45/71/6
f 32/96/6 46/72/6 45/71/6
f 32/96/6 31/97/6 46/72/6
f 30/98/5 43/99/5 41/100/5
f 30/98/5 40/101/5 43/99/5
f 40/102/2 47/73/2 43/76/2
f 40/102/2 39/95/2 47/73/2
f 31/97/6 48/83/6 46/72/6
f 31/97/6 38/103/6 48/83/6
f 38/104/4 36/81/4 48/84/4
f 38/104/4 37/93/4 36/81/4
f 33/105/1 41/106/1 34/107/1
f 33/105/1 42/108/1 41/106/1
f 49/91/4 34/77/4 29/94/4
f 49/91/4 33/89/4 34/77/4
f 42/109/2 30/110/2 41/111/2
f 42/109/2 50/112/2 30/110/2
f 53/113/3 52/114/3 51/115/3
f 53/113/3 54/116/3 52/114/3
f 55/117/6 29/118/6 30/110/6
f 55/117/6 56/119/6 29/118/6
f 57/120/2 30/110/2 50/112/2
f 57/120/2 55/117/2 30/110/2
f 56/121/4 49/91/4 29/94/4
f 56/121/4 58/122/4 49/91/4
f 58/122/5 50/92/5 49/91/5
f 58/122/5 57/123/5 50/92/5
f 61/124/6 60/125/6 59/126/6
f 61/124/6 62/127/6 60/125/6
f 65/128/2 64/129/2 63/130/2
f 65/128/2 66/131/2 64/129/2
f 69/132/4 68/133/4 67/134/4
f 69/132/4 70/135/4 68/133/4
f 54/136/5 57/123/5 58/122/5
f 54/136/5 53/137/5 57/123/5
f 67/138/1 58/139/1 56/140/1
f 67/138/1 68/141/1 58/139/1
f 71/142/6 60/125/6 62/127/6
f 71/142/6 72/143/6 60/125/6
f 68/133/5 54/136/5 58/122/5
f 68/133/5 70/135/5 54/136/5
f 75/144/3 74/145/3 73/146/3
f 75/144/3 76/147/3 74/145/3
f 63/148/1 55/149/1 57/150/1
f 63/148/1 64/151/1 55/149/1
f 65/152/5 57/123/5 53/137/5
f 65/152/5 63/153/5 57/123/5
f 77/154/6 61/124/6 59/126/6
f 77/154/6 78/155/6 61/124/6
f 81/156/3 80/157/3 79/158/3
f 81/156/3 82/159/3 80/157/3
f 85/160/3 84/161/3 83/162/3
f 85/160/3 86/163/3 84/161/3
f 88/164/3 83/162/3 87/165/3
f 88/164/3 85/160/3 83/162/3
f 60/166/1 67/138/1 56/140/1
f 60/166/1 72/167/1 67/138/1
f 72/168/4 69/132/4 67/134/4
f 72/168/4 71/169/4 69/132/4
f 59/170/1 56/140/1 55/149/1
f 59/170/1 60/166/1 56/140/1
f 77/171/1 55/149/1 64/151/1
f 77/171/1 59/170/1 55/149/1
f 86/163/3 89/172/3 84/161/3
f 86/163/3 90/173/3 89/172/3
f 78/155/2 64/129/2 66/131/2
f 78/155/2 77/154/2 64/129/2
f 73/174/2 52/175/2 54/176/2
f 73/174/2 74/177/2 52/175/2
f 75/178/5 54/136/5 70/135/5
f 75/178/5 73/179/5 54/136/5
f 91/180/4 69/132/4 71/169/4
f 91/180/4 76/181/4 69/132/4
f 76/181/4 70/135/4 69/132/4
f 76/181/4 75/178/4 70/135/4
f 81/182/2 78/155/2 66/131/2
f 81/182/2 92/183/2 78/155/2
f 93/184/6 71/142/6 62/127/6
f 93/184/6 91/185/6 71/142/6
f 74/186/5 51/187/5 52/188/5
f 74/186/5 79/189/5 51/187/5
f 94/190/6 62/127/6 61/124/6
f 94/190/6 93/184/6 62/127/6
f 80/191/5 65/152/5 53/137/5
f 80/191/5 82/192/5 65/152/5
f 92/183/6 61/124/6 78/155/6
f 92/183/6 94/190/6 61/124/6
f 79/189/4 53/137/4 51/187/4
f 79/189/4 80/191/4 53/137/4
f 82/193/2 66/131/2 65/128/2
f 82/193/2 81/182/2 66/131/2
f 87/194/5 74/186/5 76/181/5
f 87/194/5 83/195/5 74/186/5
f 88/196/4 76/181/4 91/180/4
f 88/196/4 87/194/4 76/181/4
f 89/197/2 92/183/2 81/182/2
f 89/197/2 90/198/2 92/183/2
f 85/199/6 91/185/6 93/184/6
f 85/199/6 88/200/6 91/185/6
f 95/201/5 80/191/5 73/179/5
f 95/201/5 96/202/5 80/191/5
f 86/203/6 93/184/6 94/190/6
f 86/203/6 85/199/6 93/184/6
f 84/204/5 81/205/5 79/206/5
f 84/204/5 89/207/5 81/205/5
f 90/198/6 94/190/6 92/183/6
f 90/198/6 86/203/6 94/190/6
f 73/208/1 79/209/1 74/210/1
f 73/208/1 80/211/1 79/209/1
f 95/201/4 74/186/4 83/195/4
f 95/201/4 73/179/4 74/186/4
f 80/212/2 84/213/2 79/214/2
f 80/212/2 96/215/2 84/213/2
f 99/216/3 98/217/3 97/218/3
f 99/216/3 100/219/3 98/217/3
f 101/220/6 83/221/6 84/213/6
f 101/220/6 102/222/6 83/221/6
f 103/223/2 84/213/2 96/215/2
f 103/223/2 101/220/2 84/213/2
f 102/224/4 95/201/4 83/195/4
f 102/224/4 104/225/4 95/201/4
f 104/225/5 96/202/5 95/201/5
f 104/225/5 103/226/5 96/202/5
f 107/227/6 106/228/6 105/229/6
f 107/227/6 108/230/6 106/228/6
f 111/231/2 110/232/2 109/233/2
f 111/231/2 112/234/2 110/232/2
f 115/235/4 114/236/4 113/237/4
f 115/235/4 116/238/4 114/236/4
f 100/239/5 103/226/5 104/225/5
f 100/239/5 99/240/5 103/226/5
f 113/241/1 104/242/1 102/243/1
f 113/241/1 114/244/1 104/242/1
f 117/245/6 106/228/6 108/230/6
f 117/245/6 118/246/6 106/228/6
f 114/236/5 100/239/5 104/225/5
f 114/236/5 116/238/5 100/239/5
f 121/247/3 120/248/3 119/249/3
f 121/247/3 122/250/3 120/248/3
f 109/251/1 101/252/1 103/253/1
f 109/251/1 110/254/1 101/252/1
f 111/255/5 103/226/5 99/240/5
f 111/255/5 109/256/5 103/226/5
f 123/257/6 107/227/6 105/229/6
f 123/257/6 124/258/6 107/227/6
f 127/259/3 126/260/3 125/261/3
f 127/259/3 128/262/3 126/260/3
f 131/263/3 130/264/3 129/265/3
f 131/263/3 132/266/3 130/264/3
f 133/267/3 120/248/3 122/250/3
f 133/267/3 134/268/3 120/248/3
f 106/269/1 113/241/1 102/243/1
f 106/269/1 118/270/1 113/241/1
f 118/271/4 115/235/4 113/237/4
f 118/271/4 117/272/4 115/235/4
f 105/273/1 102/243/1 101/252/1
f 105/273/1 106/269/1 102/243/1
f 123/274/1 101/252/1 110/254/1
f 123/274/1 105/273/1 101/252/1
f 135/275/3 127/259/3 125/261/3
f 135/275/3 136/276/3 127/259/3
f 124/258/2 110/232/2 112/234/2
f 124/258/2 123/257/2 110/232/2
f 137/277/2 98/278/2 100/279/2
f 137/277/2 138/280/2 98/278/2
f 139/281/5 100/239/5 116/238/5
f 139/281/5 137/282/5 100/239/5
f 140/283/4 115/235/4 117/272/4
f 140/283/4 141/284/4 115/235/4
f 141/284/4 116/238/4 115/235/4
f 141/284/4 139/281/4 116/238/4
f 142/285/2 124/258/2 112/234/2
f 142/285/2 143/286/2 124/258/2
f 144/287/6 117/245/6 108/230/6
f 144/287/6 140/288/6 117/245/6
f 138/289/5 97/290/5 98/291/5
f 138/289/5 145/292/5 97/290/5
f 146/293/6 108/230/6 107/227/6
f 146/293/6 144/287/6 108/230/6
f 147/294/5 111/255/5 99/240/5
f 147/294/5 148/295/5 111/255/5
f 143/286/6 107/227/6 124/258/6
f 143/286/6 146/293/6 107/227/6
f 145/292/4 99/240/4 97/290/4
f 145/292/4 147/294/4 99/240/4
f 148/296/2 112/234/2 111/231/2
f 148/296/2 142/285/2 112/234/2
f 149/297/2 138/280/2 137/277/2
f 149/297/2 150/298/2 138/280/2
f 151/299/7 137/282/7 139/281/7
f 151/299/7 149/300/7 137/282/7
f 152/301/4 141/284/4 140/283/4
f 152/301/4 153/302/4 141/284/4
f 153/302/4 139/281/4 141/284/4
f 153/302/4 151/299/4 139/281/4
f 154/303/2 143/286/2 142/285/2
f 154/303/2 155/304/2 143/286/2
f 156/305/8 140/288/8 144/287/8
f 156/305/8 152/306/8 140/288/8
f 150/307/7 145/292/7 138/289/7
f 150/307/7 157/308/7 145/292/7
f 158/309/8 144/287/8 146/293/8
f 158/309/8 156/305/8 144/287/8
f 159/310/7 148/295/7 147/294/7
f 159/310/7 160/311/7 148/295/7
f 155/304/8 146/293/8 143/286/8
f 155/304/8 158/309/8 146/293/8
f 157/308/4 147/294/4 145/292/4
f 157/308/4 159/310/4 147/294/4
f 160/312/2 142/285/2 148/296/2
f 160/312/2 154/303/2 142/285/2
f 119/313/2 150/298/2 149/297/2
f 119/313/2 120/314/2 150/298/2
f 121/315/5 149/300/5 151/299/5
f 121/315/5 119/316/5 149/300/5
f 133/317/4 153/302/4 152/301/4
f 133/317/4 122/318/4 153/302/4
f 122/318/4 151/299/4 153/302/4
f 122/318/4 121/315/4 151/299/4
f 127/319/2 155/304/2 154/303/2
f 127/319/2 136/320/2 155/304/2
f 134/321/6 152/306/6 156/305/6
f 134/321/6 133/322/6 152/306/6
f 120/323/5 157/308/5 150/307/5
f 120/323/5 125/324/5 157/308/5
f 135/325/6 156/305/6 158/309/6
f 135/325/6 134/321/6 156/305/6
f 126/326/5 160/311/5 159/310/5
f 126/326/5 128/327/5 160/311/5
f 136/320/6 158/309/6 155/304/6
f 136/320/6 135/325/6 158/309/6
f 125/324/4 159/310/4 157/308/4
f 125/324/4 126/326/4 159/310/4
f 128/328/2 154/303/2 160/312/2
f 128/328/2 127/319/2 154/303/2
f 161/329/5 126/330/5 119/331/5
f 161/329/5 162/332/5 126/330/5
f 131/333/4 120/334/4 134/335/4
f 131/333/4 129/336/4 120/334/4
f 130/337/2 135/325/2 125/338/2
f 130/337/2 132/339/2 135/325/2
f 132/339/6 134/321/6 135/325/6
f 132/339/6 131/340/6 134/321/6
f 119/341/1 125/342/1 120/343/1
f 119/341/1 126/344/1 125/342/1
f 161/329/4 120/334/4 129/336/4
f 161/329/4 119/331/4 120/334/4
f 126/345/2 130/337/2 125/338/2
f 126/345/2 162/346/2 130/337/2
f 165/347/3 164/348/3 163/349/3
f 165/347/3 166/350/3 164/348/3
f 163/351/6 129/352/6 130/337/6
f 163/351/6 164/353/6 129/352/6
f 165/354/2 130/337/2 162/346/2
f 165/354/2 163/351/2 130/337/2
f 164/355/4 161/329/4 129/336/4
f 164/355/4 166/356/4 161/329/4
f 166/356/5 162/332/5 161/329/5
f 166/356/5 165/357/5 162/332/5
