# Blender v3.5.1 OBJ File: 'untitled.blend'
# www.blender.org
mtllib PhysicsDemoGeo.001.mtl
o PhysicsDemoGeo.001
v -50.135349 0.879287 -2.975978
v -50.135349 0.879287 -4.255747
v -50.135349 2.159053 -2.975978
v -48.855587 0.879287 -4.255747
v -48.855587 0.879287 -2.975978
v -48.855587 2.159053 -2.975978
v -48.855587 7.278118 -6.815279
v 12.675480 0.879282 -2.975975
v 12.675480 2.159048 -2.975975
v 12.675480 2.159048 -4.255741
v 12.675481 7.278112 -8.095039
v 12.675480 7.278112 -6.815274
v -48.855587 7.278118 -8.095043
v -50.135349 7.278118 -8.095047
v -48.855587 2.159053 -4.255747
v -50.135349 2.159053 -4.255747
v -50.135349 7.278118 -6.815279
v 12.675480 0.879282 -4.255741
vt 0.223723 0.000000
vt 0.232236 0.000000
vt 0.232236 0.014189
vt 0.405345 0.504940
vt 0.424812 0.509807
vt 0.412645 0.517107
vt 0.212371 0.014189
vt 0.212371 0.000000
vt 0.223723 0.014189
vt 0.223723 0.696405
vt 0.141425 0.014189
vt 0.212371 0.696405
vt 0.417512 0.536575
vt 0.405345 0.529274
vt 0.412645 0.517107
vt 0.424812 0.607144
vt 0.141425 0.696405
vt 0.412645 0.599844
vt 0.132912 0.014189
vt 0.132912 0.696405
vt 0.314534 0.000000
vt 0.314534 0.014189
vt 0.243588 0.014189
vt 0.132912 0.000000
vt 0.314534 0.696405
vt 0.243588 0.000000
vt 0.243588 0.696405
vt 0.412645 0.434371
vt 0.417512 0.497640
vt 0.424812 0.427070
vt 0.141425 0.000000
vt 0.232236 0.696405
vt 0.424812 0.524408
vn 0.0000 -1.0000 0.0000
vn -1.0000 0.0000 0.0000
vn 0.0000 0.0000 1.0000
vn 0.0000 0.6000 0.8000
vn 1.0000 0.0000 0.0000
vn 0.0000 1.0000 0.0000
vn 0.0000 -0.6000 -0.8000
vn 0.0000 0.0000 -1.0000
usemtl mat
s off
f 1/1/1 2/2/1 4/3/1
f 3/4/2 2/5/2 1/6/2
f 6/7/3 3/8/3 1/1/3
f 1/1/1 4/3/1 5/9/1
f 6/7/3 1/1/3 5/9/3
f 8/10/3 6/7/3 5/9/3
f 7/11/4 3/8/4 6/7/4
f 9/12/4 7/11/4 6/7/4
f 8/10/3 9/12/3 6/7/3
f 10/13/5 9/14/5 8/15/5
f 11/16/5 9/14/5 10/13/5
f 9/12/4 12/17/4 7/11/4
f 11/16/5 12/18/5 9/14/5
f 12/17/6 13/19/6 7/11/6
f 12/17/6 11/20/6 13/19/6
f 14/21/7 13/22/7 15/23/7
f 7/11/6 13/19/6 14/24/6
f 11/25/7 15/23/7 13/22/7
f 14/21/7 15/23/7 16/26/7
f 16/26/8 15/23/8 4/3/8
f 10/27/8 4/3/8 15/23/8
f 11/25/7 10/27/7 15/23/7
f 17/28/2 16/29/2 3/4/2
f 3/4/2 16/29/2 2/5/2
f 16/26/8 4/3/8 2/2/8
f 17/28/2 14/30/2 16/29/2
f 7/11/4 17/31/4 3/8/4
f 7/11/6 14/24/6 17/31/6
f 10/27/8 18/32/8 4/3/8
f 10/13/5 8/15/5 18/33/5
f 18/32/1 5/9/1 4/3/1
f 18/32/1 8/10/1 5/9/1
