# Blender v3.5.1 OBJ File: 'untitled.blend'
# www.blender.org
mtllib PhysicsDemoGeo.002.mtl
o PhysicsDemoGeo.002
v 12.573188 -5.839490 -4.523655
v 12.573189 -5.839490 -8.043014
v 12.573188 7.278112 -4.523655
v 39.448273 -5.839492 -8.043012
v 39.448273 -5.839492 -4.523655
v 39.448277 7.278112 -4.523651
v 12.573189 7.278112 -8.043014
v 39.448277 7.278112 -8.043012
vt 0.569725 0.297973
vt 0.546313 0.297973
vt 0.546313 0.000000
vt 0.699556 0.145439
vt 0.660536 0.000000
vt 0.699556 0.000000
vt 0.453374 0.595947
vt 0.453374 0.297973
vt 0.569725 0.000000
vt 0.569725 0.595947
vt 0.429961 0.297973
vt 0.429961 0.595947
vt 0.671178 0.301521
vt 0.632158 0.301521
vt 0.632158 0.156081
vt 0.429961 0.000000
vt 0.671178 0.156081
vt 0.660536 0.145439
vn -0.0000 -1.0000 0.0000
vn -1.0000 0.0000 -0.0000
vn -0.0000 0.0000 1.0000
vn 0.0000 1.0000 0.0000
vn 1.0000 -0.0000 0.0000
vn 0.0000 -0.0000 -1.0000
usemtl mat
s off
f 1/1/1 2/2/1 4/3/1
f 3/4/2 2/5/2 1/6/2
f 6/7/3 3/8/3 1/1/3
f 1/1/1 4/3/1 5/9/1
f 6/7/3 1/1/3 5/10/3
f 6/7/4 7/11/4 3/8/4
f 6/7/4 8/12/4 7/11/4
f 8/13/5 6/14/5 5/15/5
f 7/11/6 8/16/6 4/3/6
f 8/13/5 5/15/5 4/17/5
f 7/11/6 4/3/6 2/2/6
f 3/4/2 7/18/2 2/5/2
